<?xml version="1.0" encoding="UTF-8" standalone="no"?>
<!-- Created with Inkscape (http://www.inkscape.org/) -->

<svg
   xmlns:dc="http://purl.org/dc/elements/1.1/"
   xmlns:cc="http://creativecommons.org/ns#"
   xmlns:rdf="http://www.w3.org/1999/02/22-rdf-syntax-ns#"
   xmlns:svg="http://www.w3.org/2000/svg"
   xmlns="http://www.w3.org/2000/svg"
   xmlns:sodipodi="http://sodipodi.sourceforge.net/DTD/sodipodi-0.dtd"
   xmlns:inkscape="http://www.inkscape.org/namespaces/inkscape"
   width="210mm"
   height="297mm"
   viewBox="0 0 210 297"
   version="1.1"
   id="svg8"
   inkscape:version="0.92.4 (f8dce91, 2019-08-02)"
   sodipodi:docname="beer-logo.svg">
  <defs
     id="defs2" />
  <sodipodi:namedview
     id="base"
     pagecolor="#ffffff"
     bordercolor="#666666"
     borderopacity="1.0"
     inkscape:pageopacity="0.0"
     inkscape:pageshadow="2"
     inkscape:zoom="0.35"
     inkscape:cx="-271.42857"
     inkscape:cy="560"
     inkscape:document-units="mm"
     inkscape:current-layer="layer1"
     showgrid="false"
     inkscape:window-width="1533"
     inkscape:window-height="845"
     inkscape:window-x="67"
     inkscape:window-y="27"
     inkscape:window-maximized="1" />
  <metadata
     id="metadata5">
    <rdf:RDF>
      <cc:Work
         rdf:about="">
        <dc:format>image/svg+xml</dc:format>
        <dc:type
           rdf:resource="http://purl.org/dc/dcmitype/StillImage" />
        <dc:title></dc:title>
      </cc:Work>
    </rdf:RDF>
  </metadata>
  <g
     inkscape:label="Capa 1"
     inkscape:groupmode="layer"
     id="layer1">
    <path
       inkscape:connector-curvature="0"
       id="path950"
       d="m 72.038684,209.98768 c -4.585161,-1.11104 -8.543923,-4.67337 -10.345036,-9.30907 l -0.707178,-1.82014 -0.132292,-38.27333 -0.132292,-38.27333 -1.374593,-1.09442 c -2.176315,-1.73274 -3.801685,-4.20923 -4.697849,-7.15787 -0.359571,-1.1831 -0.464414,-3.00452 -0.560678,-9.74066 -0.07097,-4.965817 -0.0099,-8.994097 0.152352,-10.054165 0.933431,-6.097587 6.688577,-11.704256 12.830768,-12.499747 1.390506,-0.180088 13.326774,-0.24716 34.792704,-0.195508 l 32.67605,0.07863 1.71979,0.589142 c 4.69995,1.610045 8.96287,6.132939 10.1782,10.798935 0.27789,1.066877 0.40513,2.819856 0.40513,5.581366 v 4.025967 l 6.94531,0.0946 c 6.69677,0.0912 7.00825,0.1188 8.70383,0.77043 4.38034,1.68342 7.48902,5.0097 9.11896,9.75724 0.47871,1.39434 0.49961,2.7611 0.49961,32.67604 v 31.22083 l -0.61701,1.70969 c -1.58439,4.39029 -4.66293,7.57937 -9.0017,9.32494 -1.44204,0.58016 -1.85582,0.60567 -11.94483,0.7363 l -10.45104,0.13532 -0.14979,5.02708 c -0.13166,4.41844 -0.22454,5.21929 -0.76708,6.61459 -1.33817,3.44141 -3.84006,6.31733 -6.88998,7.92001 -3.41259,1.79327 -2.25615,1.73147 -32.01295,1.71087 -20.716575,-0.0143 -27.171379,-0.0952 -28.238406,-0.35376 z m 81.013376,-36.56693 c 0.71074,-0.24217 1.72092,-0.88004 2.28151,-1.44063 1.88611,-1.8861 1.82894,-1.06809 1.82894,-26.1706 0,-25.01664 0.0549,-24.21453 -1.77791,-25.97077 -1.97121,-1.88885 -2.16844,-1.93344 -8.96163,-2.02613 l -6.10933,-0.0834 -0.17452,4.42509 c -0.096,2.43381 -0.17453,15.06218 -0.17453,28.06305 v 23.63795 h 5.906 c 4.78356,0 6.14839,-0.0826 7.18147,-0.4346 z"
       style="fill:#fbeccf;stroke-width:0.26458332" />
    <path
       inkscape:connector-curvature="0"
       id="path948"
       d="m 72.136805,209.68405 c -5.457606,-1.32112 -9.83892,-5.99043 -10.740658,-11.44666 -0.204217,-1.23567 -0.269175,-12.75836 -0.217996,-38.66954 l 0.0729,-36.90937 -1.540689,-1.16144 c -2.383277,-1.79662 -4.124003,-4.35479 -5.06092,-7.43752 -0.359571,-1.1831 -0.464414,-3.00452 -0.560678,-9.74066 -0.07097,-4.965817 -0.0099,-8.994097 0.152352,-10.054165 0.933431,-6.097587 6.688577,-11.704256 12.830768,-12.499747 1.390506,-0.180088 13.326774,-0.24716 34.792706,-0.195508 l 32.67605,0.07863 1.71979,0.589142 c 4.83357,1.65582 9.33613,6.583863 10.3125,11.287023 0.16962,0.817049 0.26317,3.175638 0.21789,5.493428 l -0.0793,4.061647 6.19602,-0.0757 c 7.079,-0.0865 8.13381,0.0609 11.11452,1.5528 2.53483,1.26872 5.10481,3.84915 6.34205,6.36784 1.68089,3.42183 1.63844,2.43772 1.54845,35.89634 -0.0744,27.64976 -0.12119,30.45463 -0.52769,31.61112 -1.73841,4.94573 -5.54446,8.64018 -10.13226,9.83515 -1.25951,0.32806 -3.39701,0.40513 -11.23647,0.40513 -7.17695,0 -9.7632,0.0821 -9.99858,0.3175 -0.22033,0.22033 -0.3175,1.60547 -0.3175,4.52587 0,2.97966 -0.12238,4.68302 -0.41915,5.83406 -1.29305,5.01513 -5.38869,9.03341 -10.5505,10.35122 -2.27407,0.58057 -54.189522,0.56533 -56.593557,-0.0166 z m 80.910605,-35.99713 c 0.71042,-0.24207 1.76934,-0.91295 2.40129,-1.52135 2.05432,-1.97776 1.97839,-0.96611 1.97839,-26.36202 0,-24.29082 0.0233,-23.876 -1.44931,-25.80669 -0.38509,-0.50488 -1.31786,-1.24366 -2.07282,-1.64172 -1.36716,-0.72085 -1.39764,-0.72408 -7.61423,-0.80683 l -6.24156,-0.0831 -0.17377,4.581 c -0.22809,6.01298 -0.22721,51.66912 10e-4,51.89732 0.0969,0.097 2.81418,0.17639 6.03822,0.17639 4.73396,0 6.10643,-0.0833 7.13273,-0.43301 z M 66.603353,123.95383 c -0.08792,-0.0879 -0.316122,-0.0973 -0.507118,-0.0209 -0.211067,0.0845 -0.148372,0.14715 0.159853,0.15985 0.278914,0.0115 0.435184,-0.0511 0.347265,-0.13897 z m 4.106554,-0.0154 c -0.181901,-0.0734 -0.479557,-0.0734 -0.661458,0 -0.181902,0.0734 -0.03307,0.13345 0.330729,0.13345 0.363802,0 0.51263,-0.0601 0.330729,-0.13345 z m 4.960937,-1.82777 c 0,-0.0728 -0.238125,-0.005 -0.529167,0.15091 -0.291041,0.15576 -0.529166,0.34274 -0.529166,0.4155 0,0.0728 0.238125,0.005 0.529166,-0.15091 0.291042,-0.15576 0.529167,-0.34274 0.529167,-0.4155 z m 2.645833,-2.09804 c 0.790422,-0.80037 1.377601,-1.45521 1.304841,-1.45521 -0.07276,0 -0.779003,0.65484 -1.569424,1.45521 -0.790422,0.80036 -1.377601,1.4552 -1.30484,1.4552 0.07276,0 0.779002,-0.65484 1.569423,-1.4552 z m 26.650873,0.46836 c -0.54895,-0.0573 -1.38239,-0.0563 -1.85209,0.002 -0.4697,0.0585 -0.0206,0.10531 0.99809,0.10413 1.01865,-10e-4 1.40294,-0.049 0.854,-0.10627 z m 19.32048,0.004 c -0.40018,-0.0606 -1.05502,-0.0606 -1.45521,0 -0.40018,0.0606 -0.0728,0.11022 0.72761,0.11022 0.80036,0 1.12779,-0.0496 0.7276,-0.11022 z m -22.75968,-0.23493 c -0.0879,-0.0879 -0.31612,-0.0973 -0.50712,-0.0209 -0.21106,0.0845 -0.14837,0.14716 0.15986,0.15986 0.27891,0.0115 0.43518,-0.0511 0.34726,-0.13897 z m 28.24979,-2.22141 c 0.56839,-0.58208 0.9739,-1.05833 0.90114,-1.05833 -0.0728,0 -0.59734,0.47625 -1.16573,1.05833 -0.56838,0.58208 -0.9739,1.05833 -0.90114,1.05833 0.0728,0 0.59734,-0.47625 1.16573,-1.05833 z m -11.77396,0.43788 c 0,-0.0502 -0.26789,-0.31809 -0.59531,-0.59531 l -0.59532,-0.50403 0.50403,0.59531 c 0.47367,0.55945 0.6866,0.71577 0.6866,0.50403 z m -5.15938,-0.96705 c 0.26339,-0.29104 0.41936,-0.52916 0.3466,-0.52916 -0.0728,0 -0.34779,0.23812 -0.61118,0.52916 -0.26339,0.29105 -0.41936,0.52917 -0.3466,0.52917 0.0728,0 0.34779,-0.23812 0.61118,-0.52917 z m -17.330207,0.1885 c 0,-0.0419 -0.625078,-0.66693 -1.389062,-1.38907 l -1.389063,-1.31297 1.312971,1.38906 c 1.220036,1.29075 1.465154,1.5104 1.465154,1.31298 z m -14.684374,-0.98225 c 0.225756,-0.43656 0.350933,-0.79375 0.278172,-0.79375 -0.07276,0 -0.317,0.35719 -0.542755,0.79375 -0.225756,0.43657 -0.350933,0.79375 -0.278173,0.79375 0.07276,0 0.317,-0.35718 0.542756,-0.79375 z m 4.293968,0.10473 c -0.08792,-0.0879 -0.316125,-0.0973 -0.507119,-0.0209 -0.211066,0.0845 -0.148373,0.14715 0.159853,0.15985 0.278913,0.0115 0.435184,-0.0511 0.347266,-0.13897 z m 2.910416,0 c -0.08792,-0.0879 -0.316124,-0.0973 -0.507119,-0.0209 -0.211066,0.0845 -0.148373,0.14715 0.159853,0.15985 0.278914,0.0115 0.435184,-0.0511 0.347266,-0.13897 z m 46.566667,0 c -0.0879,-0.0879 -0.31612,-0.0973 -0.50712,-0.0209 -0.21106,0.0845 -0.14837,0.14715 0.15986,0.15985 0.27891,0.0115 0.43518,-0.0511 0.34726,-0.13897 z m 3.70417,0 c -0.0879,-0.0879 -0.31613,-0.0973 -0.50712,-0.0209 -0.21107,0.0845 -0.14837,0.14715 0.15985,0.15985 0.27892,0.0115 0.43519,-0.0511 0.34727,-0.13897 z m -6.57756,-0.86304 c -0.15506,-0.0533 -0.47592,0.0971 -0.71304,0.33426 -0.39843,0.39843 -0.37705,0.40577 0.28192,0.0969 0.39217,-0.18384 0.58617,-0.37784 0.43112,-0.43111 z m -41.354821,-0.32889 c 0.09878,-0.15983 -0.132712,-0.086 -0.514432,0.16415 -0.381717,0.25011 -0.694034,0.50477 -0.694034,0.56592 0,0.19139 1.019697,-0.42463 1.208466,-0.73007 z m 25.127951,-0.13605 c 0.23812,0.0914 0.34532,0.0478 0.25234,-0.10269 -0.24987,-0.4043 -0.82128,-0.31013 -1.2225,0.20146 -0.32853,0.41891 -0.31933,0.42869 0.0965,0.10269 0.25281,-0.19818 0.64595,-0.28884 0.87364,-0.20146 z m 28.16775,-1.55487 c 0.49366,-0.50932 0.83802,-0.92604 0.76526,-0.92604 -0.0728,0 -0.53619,0.41672 -1.02984,0.92604 -0.49366,0.50932 -0.83802,0.92604 -0.76526,0.92604 0.0728,0 0.53619,-0.41672 1.02984,-0.92604 z m 2.82822,-6.68073 c -0.0666,-0.25466 -0.121,-0.0463 -0.121,0.46302 0,0.50932 0.0545,0.71768 0.121,0.46302 0.0666,-0.25466 0.0666,-0.67138 0,-0.92604 z m 0.005,-3.30421 c -0.0633,-0.32912 -0.11747,-0.12214 -0.1204,0.45994 -0.003,0.58208 0.0488,0.85136 0.11506,0.5984 0.0662,-0.25297 0.0686,-0.72922 0.005,-1.05834 z"
       style="fill:#e0e7eb;stroke-width:0.26458332" />
    <path
       inkscape:connector-curvature="0"
       id="path946"
       d="m 72.136805,209.68405 c -5.290115,-1.28058 -9.512098,-5.61616 -10.636977,-10.92319 -0.309206,-1.45879 -0.372653,-8.00555 -0.376472,-38.84666 -0.0025,-20.40071 0.09405,-37.15317 0.214614,-37.22768 0.120565,-0.0745 0.983768,0.17484 1.918229,0.55412 2.065886,0.83851 5.981318,1.12981 8.216269,0.61128 3.607204,-0.83691 7.176497,-3.45759 8.967562,-6.58424 0.505645,-0.88271 1.038418,-1.60796 1.183939,-1.61168 0.145521,-0.004 0.85031,0.29039 1.566195,0.65359 2.48997,1.26324 5.847022,0.76169 7.694221,-1.14953 0.436562,-0.45169 0.880705,-0.82456 0.986986,-0.82861 0.10628,-0.004 1.05878,0.86742 2.116666,1.93659 5.526942,5.58585 13.974403,5.83597 19.487893,0.577 0.84336,-0.80443 1.65459,-1.4626 1.80273,-1.4626 0.14814,0 0.6918,0.63625 1.20812,1.41389 1.71653,2.58528 4.9093,4.09578 7.98141,3.77601 2.22632,-0.23174 4.10831,-1.22401 5.69238,-3.0013 l 1.32202,-1.48328 1.57065,0.47555 c 2.2626,0.68507 5.46755,0.48037 7.47333,-0.4773 2.29579,-1.09614 3.78063,-2.56449 4.91565,-4.86104 0.9295,-1.8807 1.00022,-2.1983 1.13039,-5.07594 l 0.13886,-3.06972 6.21765,-0.0712 c 7.09205,-0.0812 8.1254,0.063 11.09289,1.54831 2.53483,1.26872 5.10481,3.84915 6.34205,6.36784 1.68089,3.42183 1.63844,2.43772 1.54845,35.89634 -0.0744,27.64976 -0.12119,30.45463 -0.52769,31.61112 -1.73841,4.94573 -5.54446,8.64018 -10.13226,9.83515 -1.25951,0.32806 -3.39701,0.40513 -11.23647,0.40513 -7.17695,0 -9.7632,0.0821 -9.99858,0.3175 -0.22033,0.22033 -0.3175,1.60547 -0.3175,4.52587 0,2.97966 -0.12238,4.68302 -0.41915,5.83406 -1.29305,5.01513 -5.38869,9.03341 -10.5505,10.35122 -2.27407,0.58057 -54.18952,0.56533 -56.593555,-0.0166 z m 80.910605,-35.99713 c 0.71042,-0.24207 1.76934,-0.91295 2.40129,-1.52135 2.05432,-1.97776 1.97839,-0.96611 1.97839,-26.36202 0,-24.29082 0.0233,-23.876 -1.44931,-25.80669 -0.38509,-0.50488 -1.31786,-1.24366 -2.07282,-1.64172 -1.36716,-0.72085 -1.39764,-0.72408 -7.61423,-0.80683 l -6.24156,-0.0831 -0.17377,4.581 c -0.22809,6.01298 -0.22721,51.66912 10e-4,51.89732 0.0969,0.097 2.81418,0.17639 6.03822,0.17639 4.73396,0 6.10643,-0.0833 7.13273,-0.43301 z"
       style="fill:#fad89c;stroke-width:0.26458332" />
    <path
       inkscape:connector-curvature="0"
       id="path944"
       d="m 72.495844,209.4284 c -4.797052,-1.05058 -8.525941,-4.39084 -10.292731,-9.22001 l -0.687477,-1.87908 -0.07394,-37.63698 c -0.04067,-20.70034 0.0099,-37.63698 0.1124,-37.63698 0.102487,0 1.08826,0.3139 2.190606,0.69755 2.330112,0.81094 5.567237,0.96794 7.957391,0.38591 3.531733,-0.86 7.25134,-3.6399 8.988025,-6.71732 0.475761,-0.84306 0.940038,-1.49183 1.031727,-1.44171 2.927546,1.60021 5.347716,1.81396 7.575039,0.66904 0.727604,-0.37401 1.549728,-0.93102 1.826945,-1.23778 0.277215,-0.30678 0.610383,-0.55777 0.740376,-0.55777 0.129992,0 1.034272,0.80627 2.009513,1.79171 5.525354,5.58314 13.968941,5.75894 19.875501,0.41381 l 1.58706,-1.4362 0.63499,1.00587 c 0.86646,1.37257 2.64381,2.93144 4.11719,3.6111 0.96432,0.44483 1.72669,0.56333 3.60426,0.56024 2.97153,-0.005 4.36672,-0.60904 6.51833,-2.82261 l 1.49125,-1.53419 1.0223,0.35813 c 5.05311,1.77019 10.677,-0.63739 13.1305,-5.62115 0.75984,-1.54347 0.85771,-2.01916 0.98243,-4.77516 l 0.13852,-3.06092 6.02273,-0.0711 c 6.79015,-0.0802 8.39822,0.14892 11.14793,1.58824 2.17166,1.13675 4.89343,3.90667 5.94714,6.05235 1.65311,3.36624 1.61155,2.46642 1.61155,34.89616 0,32.45006 0.0433,31.51652 -1.62081,34.925 -1.05466,2.16012 -3.98366,5.13471 -6.07768,6.17225 -2.87709,1.42554 -3.51975,1.49412 -14.03265,1.49752 -5.33599,0.002 -9.89013,0.0754 -10.12032,0.16374 -0.35748,0.13718 -0.41908,0.78347 -0.42242,4.43177 -0.005,4.96045 -0.34193,6.78099 -1.75498,9.47005 -1.57874,3.00432 -4.25943,5.2352 -8.01797,6.67254 -1.458,0.55758 -1.65047,0.56171 -28.45544,0.61201 -22.502032,0.0422 -27.273331,-0.0119 -28.707286,-0.326 z m 80.381636,-35.36544 c 1.81856,-0.67103 3.09733,-1.71382 3.91823,-3.19516 l 0.76368,-1.37807 v -23.68021 -23.68021 l -0.58619,-1.09605 c -0.3224,-0.60283 -1.09111,-1.52824 -1.70824,-2.05648 -1.79516,-1.5366 -2.9318,-1.74226 -9.62899,-1.74226 -5.86815,0 -5.87441,5.3e-4 -6.03378,0.59531 -0.0877,0.32742 -0.16116,13.12073 -0.16315,28.42956 -0.003,26.22653 0.0231,27.85064 0.45941,28.11809 0.76336,0.46796 11.56803,0.20613 12.97903,-0.31452 z"
       style="fill:#fdca4c;stroke-width:0.26458332" />
    <path
       inkscape:connector-curvature="0"
       id="path942"
       d="m 77.114728,199.02701 c -0.442788,-0.27003 -1.0381,-0.83513 -1.322916,-1.25578 -0.506468,-0.74804 -0.517843,-1.41869 -0.517843,-30.53046 v -29.76563 l 0.616172,-0.86388 c 1.620761,-2.27235 4.889362,-2.21763 6.422303,0.10752 0.481057,0.72966 0.498663,1.80724 0.498663,30.52199 0,28.71474 -0.0176,29.79233 -0.498663,30.52199 -1.13483,1.72129 -3.503478,2.29742 -5.197716,1.26425 z m 21.283262,-0.10766 c -1.953699,-1.30516 -1.824241,0.94291 -1.824241,-31.67858 0,-32.66115 -0.134144,-30.36398 1.851261,-31.70215 0.762187,-0.51371 1.175173,-0.60415 2.33403,-0.5111 1.19401,0.0959 1.5559,0.26096 2.38125,1.08631 l 0.97326,0.97326 v 30.17708 30.17707 l -1.11423,1.03935 c -0.98185,0.91585 -1.26799,1.03934 -2.40827,1.03934 -0.904904,0 -1.564383,-0.1806 -2.19306,-0.60058 z m 21.45827,0.0236 c -1.9854,-1.33816 -1.85126,0.95901 -1.85126,-31.70214 0,-32.66115 -0.13414,-30.36398 1.85126,-31.70215 1.23783,-0.83429 3.36817,-0.71855 4.3928,0.23867 1.50961,1.41028 1.42804,-0.38701 1.42804,31.46348 0,31.85049 0.0816,30.05319 -1.42804,31.46348 -1.02463,0.95721 -3.15497,1.07296 -4.3928,0.23866 z m 19.84375,-17.41464 v -6.87917 h 5.50066 c 6.25489,0 7.86931,-0.27521 9.81562,-1.67325 0.73393,-0.52717 1.46068,-1.36866 1.87149,-2.16693 l 0.67161,-1.30507 v -23.68727 c 0,-26.54779 0.16084,-24.34408 -1.9366,-26.53324 -1.73139,-1.80711 -2.8898,-2.04882 -9.81898,-2.04882 -5.27017,0 -6.06782,0.0538 -6.20778,0.41852 -0.0883,0.23018 -0.1606,1.71427 -0.1606,3.29798 0,2.71395 -0.0342,2.89804 -0.59531,3.20268 -0.86225,0.46815 -4.59082,0.37988 -5.99515,-0.14193 l -1.16651,-0.43343 -1.34703,1.4303 c -0.74088,0.78666 -2.00189,1.76922 -2.80225,2.18347 -1.28267,0.66386 -1.73755,0.75329 -3.83646,0.75426 -1.87337,8e-4 -2.6421,-0.11923 -3.60426,-0.56306 -1.47338,-0.67966 -3.25073,-2.23853 -4.11719,-3.6111 l -0.63499,-1.00587 -1.64261,1.48816 c -5.81985,5.27261 -14.265733,5.0716 -19.813112,-0.47154 -0.983014,-0.98227 -1.889715,-1.78594 -2.014886,-1.78594 -0.125175,0 -0.498182,0.28803 -0.828908,0.64007 -1.740347,1.85252 -5.528744,2.39008 -7.958786,1.12933 -0.753805,-0.39108 -1.407731,-0.71107 -1.45317,-0.71107 -0.04544,0 -0.439127,0.62508 -0.874858,1.38907 -2.208303,3.87188 -5.878682,6.33885 -10.538555,7.08327 -2.71652,0.43397 -6.974891,-0.35149 -8.365029,-1.54293 -0.394538,-0.33814 -0.463021,-0.87994 -0.463021,-3.66312 0,-1.79646 0.08035,-3.26629 0.178546,-3.26629 0.0982,0 1.080466,0.3139 2.182812,0.69755 2.330112,0.81094 5.567237,0.96794 7.957391,0.38591 3.531733,-0.86 7.25134,-3.6399 8.988025,-6.71732 0.475761,-0.84306 0.940038,-1.49183 1.031727,-1.44171 2.927546,1.60021 5.347716,1.81396 7.575039,0.66904 0.727604,-0.37401 1.549728,-0.93102 1.826945,-1.23778 0.277215,-0.30678 0.610383,-0.55777 0.740376,-0.55777 0.129992,0 1.034272,0.80627 2.009513,1.79171 5.525354,5.58314 13.968941,5.75894 19.875501,0.41381 l 1.58706,-1.4362 0.63499,1.00587 c 0.86646,1.37257 2.64381,2.93144 4.11719,3.6111 0.96432,0.44483 1.72669,0.56333 3.60426,0.56024 2.97153,-0.005 4.36672,-0.60904 6.51833,-2.82261 l 1.49125,-1.53419 1.0223,0.35813 c 5.05311,1.77019 10.677,-0.63739 13.1305,-5.62115 0.75984,-1.54347 0.85771,-2.01916 0.98243,-4.77516 l 0.13852,-3.06092 h 6.61459 c 6.24537,0 6.7145,0.0345 8.40481,0.61831 3.53455,1.22077 6.21024,3.53291 7.93428,6.85621 1.73107,3.33687 1.65257,1.66211 1.65257,35.25568 v 30.55938 l -0.63509,1.93875 c -1.54067,4.70325 -5.24835,8.20305 -10.002,9.44122 -1.20877,0.31484 -3.4946,0.39398 -11.37891,0.39398 h -9.86629 z"
       style="fill:#fbb64e;stroke-width:0.26458332" />
    <path
       inkscape:connector-curvature="0"
       id="path940"
       d="m 76.962064,198.87556 c -1.785999,-1.21362 -1.688095,0.62875 -1.688095,-31.76708 0,-28.89366 0.0085,-29.38325 0.529167,-30.26487 1.457002,-2.46736 4.969906,-2.44905 6.48372,0.0338 0.516324,0.84684 0.525759,1.39174 0.525759,30.36336 0,28.97162 -0.0094,29.51651 -0.525759,30.36335 -1.16041,1.90323 -3.553957,2.47475 -5.324792,1.27144 z m 21.513709,0.10875 c -0.505365,-0.30811 -1.089962,-1.00657 -1.383253,-1.65266 -0.491003,-1.08163 -0.507973,-2.08689 -0.507973,-30.09088 0,-28.00399 0.01696,-29.00926 0.507973,-30.09089 1.260494,-2.77674 5.00483,-2.93072 6.62558,-0.27247 0.51633,0.84684 0.52576,1.39174 0.52576,30.36336 0,28.97162 -0.009,29.51651 -0.52576,30.36335 -1.11222,1.8242 -3.4881,2.44972 -5.242327,1.38019 z m 21.353467,-0.065 c -1.95368,-1.30515 -1.82419,0.94328 -1.82465,-31.68271 -2.7e-4,-27.95159 0.0212,-29.28122 0.48949,-30.1625 1.48608,-2.79652 5.31253,-2.79116 6.71958,0.009 0.43208,0.86 0.46261,2.85035 0.46261,30.15723 0,27.30688 -0.0305,29.29723 -0.46261,30.15723 -0.63771,1.26929 -1.99308,2.12194 -3.37302,2.12194 -0.71604,0 -1.43269,-0.21398 -2.0114,-0.60058 z m 19.87077,-17.35596 v -6.60773 l 6.28386,-0.0871 c 5.89843,-0.0818 6.36499,-0.12448 7.60677,-0.696 1.58513,-0.72955 2.88327,-1.92086 3.6612,-3.35989 l 0.57213,-1.05833 0.0718,-23.3966 c 0.0815,-26.56864 0.19401,-25.05654 -2.0281,-27.25567 -1.96413,-1.94382 -2.95049,-2.18976 -9.35899,-2.33355 l -5.49449,-0.12327 1.12887,-0.72083 c 3.42298,-2.18573 5.22991,-5.85915 5.22991,-10.63223 v -1.81597 l 5.62239,0.005 c 6.34694,0.005 8.19325,0.27622 10.78138,1.58271 3.14267,1.58641 5.84559,4.78466 6.88347,8.14492 0.51124,1.65522 0.52526,2.52459 0.52526,32.58095 0,33.97116 0.0914,31.98677 -1.62191,35.22394 -1.44801,2.73593 -4.35039,5.20808 -7.51657,6.40236 -1.52191,0.57406 -1.9409,0.59771 -11.96204,0.67518 l -10.3849,0.0803 v -6.60773 z M 64.800629,131.03676 c -0.95815,-0.25012 -2.059478,-0.66271 -2.447396,-0.91689 -0.696886,-0.45662 -0.705305,-0.49875 -0.705305,-3.52959 0,-3.51173 -0.407988,-3.21181 3.042708,-2.23671 3.503305,0.98997 7.119181,0.56657 10.547688,-1.23506 2.168909,-1.13973 4.513501,-3.32893 5.593212,-5.22253 0.414872,-0.72761 0.786443,-1.36631 0.825709,-1.41935 0.03927,-0.053 0.643158,0.18509 1.341978,0.52917 0.999013,0.49188 1.694706,0.62429 3.254954,0.61946 2.135137,-0.007 3.650183,-0.57301 5.058296,-1.89109 l 0.692674,-0.64838 0.855461,1.0801 c 1.117407,1.41085 3.785031,3.2991 5.87987,4.16201 2.012722,0.82909 6.063782,1.12652 8.488232,0.62321 2.10008,-0.43598 4.80062,-1.84639 6.58593,-3.43966 l 1.49901,-1.33775 0.56836,0.91963 c 0.8729,1.41238 2.81063,2.97373 4.4645,3.59733 1.22029,0.46012 1.90631,0.54306 3.74309,0.45257 2.75118,-0.13554 4.47549,-0.92104 6.37825,-2.90559 l 1.27652,-1.33138 1.72761,0.46765 c 1.2999,0.35186 2.21919,0.42608 3.71324,0.29979 l 1.98562,-0.16785 v 3.15601 c 0,2.01748 -0.10541,3.22116 -0.2922,3.3366 -0.73549,0.45457 -3.71089,0.43588 -5.52519,-0.0347 l -1.87063,-0.48518 -1.15202,1.31694 c -1.77052,2.02396 -3.49491,2.84049 -6.2817,2.9745 -2.05081,0.0986 -2.45072,0.0365 -3.83646,-0.59592 -1.62853,-0.74324 -3.57701,-2.43084 -4.22085,-3.65574 -0.21035,-0.40018 -0.50949,-0.7276 -0.66477,-0.7276 -0.15528,0 -0.98288,0.63397 -1.83912,1.40882 -2.80511,2.53848 -5.67932,3.61443 -9.63893,3.60829 -3.998486,-0.006 -7.706574,-1.64895 -10.279638,-4.55409 -0.741101,-0.83674 -1.47881,-1.52135 -1.639351,-1.52135 -0.160544,0 -0.580541,0.30924 -0.933331,0.6872 -1.20583,1.29189 -2.570972,1.81407 -4.742473,1.81407 -1.54187,0 -2.232776,-0.13138 -3.098313,-0.58918 -0.612667,-0.32405 -1.267714,-0.58918 -1.455663,-0.58918 -0.187947,0 -0.639139,0.56555 -1.002647,1.25677 -0.363506,0.69123 -1.441849,2.04177 -2.396315,3.00121 -3.575754,3.59439 -8.642149,4.99168 -13.50061,3.72343 z"
       style="fill:#fdab32;stroke-width:0.26458332" />
    <path
       inkscape:connector-curvature="0"
       id="path938"
       d="m 78.174448,198.95174 c -0.442029,-0.11636 -1.156404,-0.57971 -1.5875,-1.02968 l -0.783812,-0.81812 v -29.90088 -29.90087 l 0.9883,-0.90571 c 0.849641,-0.77864 1.173875,-0.90571 2.310932,-0.90571 1.740998,0 2.864342,0.93251 3.196339,2.65334 0.294782,1.52794 0.299725,56.64023 0.0052,58.16479 -0.383598,1.98574 -2.202781,3.15 -4.129476,2.64284 z m 21.558027,0.0305 c -1.204296,-0.32597 -1.759009,-0.74874 -2.199019,-1.676 -0.390652,-0.82324 -0.431363,-3.66069 -0.431363,-30.06551 0,-32.13231 -0.08438,-30.48857 1.61004,-31.36478 0.978731,-0.50612 2.882897,-0.49156 3.624267,0.0277 1.44583,1.0127 1.38028,-0.4755 1.38028,31.33707 0,31.14317 0.0351,30.20357 -1.16568,31.20013 -0.57748,0.47926 -2.02254,0.75683 -2.818525,0.54138 z m 21.426405,-0.003 c -1.1592,-0.31002 -1.81259,-0.77094 -2.22592,-1.57024 -0.34939,-0.67564 -0.39961,-4.46683 -0.39961,-30.16778 0,-32.27923 -0.0903,-30.48548 1.57884,-31.34865 1.70783,-0.88315 3.8586,-0.32272 4.65239,1.2123 0.57628,1.11441 0.57628,59.15829 0,60.2727 -0.66365,1.28335 -2.2166,1.97318 -3.6057,1.60168 z"
       style="fill:#f38f0b;stroke-width:0.26458332" />
  </g>
</svg>
